#!OML:ASF H:\Punching\Project 1\Capture day 1\Session 1\female.ASF
:FULLY-SPECIFIED
:DEGREES
1542
root -1.1647 14.7872 5.4753 10.3057 9.60392 0.825435
lowerback 3.08955 -2.2067 0.822117
upperback -4.10338 -2.89754 0.163485
thorax -6.02092 -1.46682 -0.0498778
lowerneck -7.01744 3.09343 11.4504
upperneck 33.7507 3.17263 -2.85197
head 12.645 2.52597 -2.69742
rclavicle 6.39807e-014 7.70291e-015
rhumerus 13.1264 24.7193 -78.1407
rradius 134.123
rwrist -45.2761
rhand -16.8957 -8.06297
rfingers 7.12502
rthumb 9.33603 -37.8362
lclavicle 6.39807e-014 7.70291e-015
lhumerus 6.3384 -22.8956 78.52
lradius 136.877
lwrist 35.3567
lhand -12.1923 34.2998
lfingers 7.12502
lthumb 13.8717 63.8172
rfemur -41.591 1.59861 8.92082
rtibia 50.3365
rfoot -14.7685 -8.83688
rtoes -7.15884
lfemur -2.41798 -7.49903 -2.40292
ltibia 31.8883
lfoot -15.609 -8.33979
ltoes -33.0004
1543
root -1.18831 14.8017 5.4868 10.2507 12.3466 0.618037
lowerback 3.14405 -2.0177 1.35687
upperback -4.16684 -2.59425 0.439711
thorax -6.12818 -1.33325 -0.0833122
lowerneck -7.36889 2.1543 10.3083
upperneck 33.7248 1.79178 -2.14341
head 12.5506 1.86665 -2.39717
rclavicle 5.77718e-015 -1.49089e-014
rhumerus 12.9143 23.4583 -77.5173
rradius 134.785
rwrist -45.5332
rhand -16.8467 -8.11849
rfingers 7.12502
rthumb 9.38325 -37.8896
lclavicle 5.77718e-015 -1.49089e-014
lhumerus 5.71052 -24.6684 79.5315
lradius 138.342
lwrist 35.3509
lhand -11.9189 34.1705
lfingers 7.12502
lthumb 14.1352 63.6697
rfemur -40.4717 0.0500454 9.32715
rtibia 50.1583
rfoot -15.0976 -9.72358
rtoes -7.10567
lfemur -3.83945 -8.22908 -1.27311
ltibia 32.2706
lfoot -15.2836 -9.45782
ltoes -32.3836
1544
root -1.2126 14.8134 5.49832 10.1508 15.0451 0.307833
lowerback 3.19184 -1.8174 1.94569
upperback -4.22114 -2.26853 0.755412
thorax -6.22029 -1.19046 -0.109062
lowerneck -7.70849 1.20715 9.13714
upperneck 33.6449 0.408705 -1.41245
head 12.4651 1.2048 -2.08183
rclavicle 2.75938e-014 -9.93923e-015
rhumerus 12.735 22.0941 -76.8184
rradius 135.463
rwrist -45.8963
rhand -16.8711 -8.24242
rfingers 7.12502
rthumb 9.35971 -38.0146
lclavicle 2.75938e-014 -9.93923e-015
lhumerus 5.23331 -26.2517 80.3869
lradius 139.557
lwrist 35.2965
lhand -11.6449 34.099
lfingers 7.12502
lthumb 14.3992 63.5796
rfemur -39.3579 -1.4205 9.83174
rtibia 49.9399
rfoot -15.4086 -10.6256
rtoes -7.08342
lfemur -5.2781 -8.92845 -0.071947
ltibia 32.6771
lfoot -14.9842 -10.5079
ltoes -31.7607
1545
root -1.23788 14.8341 5.51187 9.98888 17.658 -0.09609
lowerback 3.23926 -1.59781 2.57783
upperback -4.26749 -1.91078 1.09856
thorax -6.30165 -1.03339 -0.134012
lowerneck -8.01225 0.255478 7.95007
upperneck 33.5028 -0.969385 -0.665243
head 12.3818 0.54423 -1.75655
rclavicle 3.42904e-015 -4.77083e-015
rhumerus 12.5656 20.6359 -76.0631
rradius 136.14
rwrist -46.3374
rhand -16.9051 -8.39207
rfingers 7.12502
rthumb 9.32694 -38.1657
lclavicle 3.42904e-015 -4.77083e-015
lhumerus 4.92913 -27.654 81.0741
lradius 140.559
lwrist 35.2771
lhand -11.5111 34.1083
lfingers 7.12502
lthumb 14.528 63.5796
rfemur -38.2133 -2.76847 10.4298
rtibia 49.6617
rfoot -15.7151 -11.5601
rtoes -7.09725
lfemur -6.68135 -9.60568 1.15471
ltibia 33.0739
lfoot -14.7108 -11.4448
ltoes -31.1628
1546
root -1.26122 14.8399 5.52303 9.76179 20.1358 -0.54387
lowerback 3.29154 -1.35932 3.20274
upperback -4.30584 -1.52541 1.452
thorax -6.3736 -0.862222 -0.14708
lowerneck -8.25345 -0.687751 6.76701
upperneck 33.3005 -2.32105 0.0825588
head 12.2971 -0.105341 -1.42913
rclavicle 1.30452e-014 1.63003e-014
rhumerus 12.4089 19.1188 -75.269
rradius 136.788
rwrist -46.8398
rhand -16.957 -8.54926
rfingers 7.12502
rthumb 9.2768 -38.3252
lclavicle 1.30452e-014 1.63003e-014
lhumerus 4.77021 -28.8699 81.611
lradius 141.398
lwrist 35.3237
lhand -11.6076 34.2154
lfingers 7.12502
lthumb 14.4351 63.6934
rfemur -37.1575 -4.00489 11.0323
rtibia 49.4332
rfoot -16.0023 -12.481
rtoes -7.1436
lfemur -8.03913 -10.2862 2.35328
ltibia 33.5061
lfoot -14.4916 -12.2451
ltoes -30.5632
1547
root -1.28222 14.8426 5.53361 9.49198 22.414 -0.993952
lowerback 3.34092 -1.09544 3.77863
upperback -4.32706 -1.10815 1.80073
thorax -6.42099 -0.672948 -0.141241
lowerneck -8.45915 -1.60277 5.60868
upperneck 33.0436 -3.62087 0.813665
head 12.2177 -0.732371 -1.10786
rclavicle 5.2181e-014 -7.95139e-015
rhumerus 12.2837 17.579 -74.4513
rradius 137.389
rwrist -47.3773
rhand -17.0376 -8.69883
rfingers 7.12502
rthumb 9.19908 -38.4782
lclavicle 5.2181e-014 -7.95139e-015
lhumerus 4.79461 -29.875 82.0022
lradius 142.07
lwrist 35.4244
lhand -11.9215 34.3923
lfingers 7.12502
lthumb 14.1327 63.8916
rfemur -36.1818 -5.09235 11.6003
rtibia 49.2415
rfoot -16.2739 -13.3759
rtoes -7.21202
lfemur -9.29921 -10.9581 3.44881
ltibia 33.9337
lfoot -14.3225 -12.8755
ltoes -30.0233
1548
root -1.3002 14.8427 5.54332 9.22303 24.4454 -1.377
lowerback 3.37713 -0.798152 4.24936
upperback -4.34081 -0.654611 2.11516
thorax -6.44757 -0.461504 -0.116222
lowerneck -8.59822 -2.48169 4.50379
upperneck 32.7352 -4.85966 1.52012
head 12.1348 -1.33072 -0.799795
rclavicle 5.32991e-014 -3.97569e-015
rhumerus 12.1558 16.0394 -73.6491
rradius 137.936
rwrist -47.9283
rhand -17.1202 -8.83086
rfingers 7.12502
rthumb 9.11932 -38.6137
lclavicle 5.32991e-014 -3.97569e-015
lhumerus 4.97822 -30.6923 82.2867
lradius 142.569
lwrist 35.5171
lhand -12.3743 34.6116
lfingers 7.12502
lthumb 13.6963 64.1409
rfemur -35.3396 -6.02433 12.0628
rtibia 49.1527
rfoot -16.5541 -14.2197
rtoes -7.28451
lfemur -10.4656 -11.6339 4.36263
ltibia 34.4041
lfoot -14.2355 -13.3224
ltoes -29.5708
